Coordinates
version=1
nRows=12
nColumns=24
inDegrees=yes

Units are S.I. units (second, meters, Newtons, ...)
Angles are in degrees.

endheader
time	pelvis_tilt	pelvis_list	pelvis_rotation	pelvis_tx	pelvis_ty	pelvis_tz	hip_flexion_r	hip_adduction_r	hip_rotation_r	knee_angle_r	ankle_angle_r	subtalar_angle_r	mtp_angle_r	hip_flexion_l	hip_adduction_l	hip_rotation_l	knee_angle_l	ankle_angle_l	subtalar_angle_l	mtp_angle_l	lumbar_extension	lumbar_bending	lumbar_rotation
      5.00000000	      1.66624763	     -6.19060877	      2.56547699	      1.81731580	      0.92758064	     -0.21404247	     19.39416396	     10.33117578	     -6.04250035	    -24.23372514	     10.01102164	     -5.71191466	      0.00000000	      4.60595277	     -6.89951209	     -1.66428801	    -64.84733292	    -16.97219870	      0.42529002	      0.00000000	    -28.81038172	      5.78795197	      1.10169822
      5.01000000	      1.55002527	     -6.63204194	      2.47527932	      1.82993239	      0.92915062	     -0.21340659	     18.38731790	     10.82889394	     -6.34710602	    -23.70494897	     10.81358931	     -4.98218218	      0.00000000	      7.00664136	     -7.42215920	     -1.45014429	    -67.37650451	    -17.00460001	     -0.58021403	      0.00000000	    -28.75830022	      6.17828819	      1.52612212
      5.02000000	      1.38087696	     -6.93279304	      2.25242830	      1.84245038	      0.93080420	     -0.21253798	     17.38750929	     11.24285257	     -6.39943887	    -23.11723551	     11.50424920	     -4.33296268	      0.00000000	      9.36302308	     -7.79981361	     -1.37242042	    -69.51231529	    -16.40210987	     -1.44969952	      0.00000000	    -28.66332846	      6.32658188	      2.04003032
      5.03000000	      1.29866626	     -7.09809348	      1.94213797	      1.85492948	      0.93277680	     -0.21147484	     16.21898061	     11.57643290	     -6.20850493	    -22.41911816	     12.03741789	     -3.83709322	      0.00000000	     11.50615456	     -8.06183848	     -1.43482855	    -71.20471548	    -15.44136259	     -2.27164484	      0.00000000	    -28.68788842	      6.25352134	      2.62455643
      5.04000000	      1.30058854	     -7.15037730	      1.62122399	      1.86737402	      0.93499537	     -0.21034674	     14.89602129	     11.81682087	     -5.86590307	    -21.61591119	     12.47628063	     -3.44661276	      0.00000000	     13.46014696	     -8.21877633	     -1.56657568	    -72.47670846	    -14.28369787	     -3.10809979	      0.00000000	    -28.81809878	      6.02390328	      3.16950611
      5.05000000	      1.26785459	     -7.10403137	      1.27402710	      1.87973462	      0.93719297	     -0.20914735	     13.58271040	     11.96409775	     -5.40641161	    -20.76337563	     12.82924145	     -3.17409933	      0.00000000	     15.36735837	     -8.27849957	     -1.76763692	    -73.37576695	    -13.01781082	     -4.00276084	      0.00000000	    -28.91373469	      5.65659593	      3.69469812
      5.06000000	      1.19319438	     -6.96306932	      0.90072788	      1.89202741	      0.93932315	     -0.20792101	     12.29484777	     12.01515531	     -4.81333413	    -19.87570744	     13.09578356	     -3.01619801	      0.00000000	     17.22588901	     -8.23638713	     -2.03880174	    -73.90638161	    -11.71440048	     -5.00854290	      0.00000000	    -28.96062380	      5.16961254	      4.17335289
      5.07000000	      1.12262511	     -6.78947994	      0.55406710	      1.90430149	      0.94135578	     -0.20676495	     10.99349683	     12.01043367	     -4.23995219	    -18.95416189	     13.34263511	     -2.90335521	      0.00000000	     19.00156840	     -8.14237495	     -2.31658718	    -74.10280546	    -10.40405784	     -6.14352813	      0.00000000	    -28.99561512	      4.65477202	      4.62461783
      5.08000000	      1.00785465	     -6.54150668	      0.18638767	      1.91650489	      0.94322730	     -0.20564414	      9.75311365	     11.91246737	     -3.59410816	    -18.05002535	     13.53798913	     -2.86031745	      0.00000000	     20.72548144	     -7.95606589	     -2.65024050	    -73.95741125	     -9.07628585	     -7.39517092	      0.00000000	    -28.97782668	      4.06164976	      5.00582678
      5.09000000	      0.86712776	     -6.27149915	     -0.16978805	      1.92866188	      0.94489947	     -0.20462938	      8.56595616	     11.76039869	     -3.00352250	    -17.17108703	     13.72333179	     -2.82500098	      0.00000000	     22.38956053	     -7.72241247	     -2.98406683	    -73.49848419	     -7.68764060	     -8.68382903	      0.00000000	    -28.92583742	      3.46359935	      5.34114195
      5.10000000	      0.70171115	     -5.98737011	     -0.52240553	      1.94073445	      0.94636373	     -0.20371321	      7.44006408	     11.56399501	     -2.46598868	    -16.33013246	     13.90323378	     -2.77283925	      0.00000000	     23.98926454	     -7.45721546	     -3.32295136	    -72.72544363	     -6.22784710	     -9.95249203	      0.00000000	    -28.84496443	      2.87411744	      5.64236975
      5.11000000	      0.51748218	     -5.70825981	     -0.87726370	      1.95272690	      0.94761920	     -0.20290632	      6.37329206	     11.34355536	     -2.01001751	    -15.53321649	     14.08051457	     -2.69422028	      0.00000000	     25.51004997	     -7.18501288	     -3.66170686	    -71.63607723	     -4.68818086	    -11.12926957	      0.00000000	    -28.74972524	      2.30976435	      5.92006626
